<!-- Generated by IcoMoon.io -->
<svg version="1.1" xmlns="http://www.w3.org/2000/svg" width="1024" height="1024" viewBox="0 0 1024 1024">
<title></title>
<g id="icomoon-ignore">
</g>
<path fill="#000" d="M398.048 0c-219.783 0-397.989 178.206-397.989 397.991s178.206 397.991 397.991 397.991c84.516 0 162.895-26.361 227.323-71.264l0.047-0.047 295.168 295.17c5.477 5.477 14.187 5.618 19.806 0l79.552-79.552c5.477-5.477 5.196-14.56-0.047-19.805l-295.124-295.123c44.903-64.475 71.264-142.856 71.264-227.37 0-219.785-178.206-397.991-397.991-397.991zM398.048 702.337c-168.093 0-304.346-136.253-304.346-304.346s136.255-304.346 304.346-304.346 304.346 136.253 304.346 304.346-136.253 304.346-304.346 304.346z"></path>
</svg>
